<?xml version="1.0" encoding="utf-8"?>
<!-- Generator: Adobe Illustrator 17.1.0, SVG Export Plug-In . SVG Version: 6.00 Build 0)  -->
<!DOCTYPE svg PUBLIC "-//W3C//DTD SVG 1.1//EN" "http://www.w3.org/Graphics/SVG/1.1/DTD/svg11.dtd">
<svg version="1.1" id="Layer_1" xmlns="http://www.w3.org/2000/svg" xmlns:xlink="http://www.w3.org/1999/xlink" x="0px" y="0px"
	 viewBox="0 0 6912 4608" enable-background="new 0 0 6912 4608" xml:space="preserve">
<g>
	<line x1="485" y1="2437.7" x2="5876.7" y2="2437.7"/>
	<path fill="#074567" d="M485,2437.7c0,0,21.1-1.9,60.6-5c9.9-0.8,20.9-1.7,33-2.6c12.1-0.9,25.4-1.9,39.7-3
		c28.6-2.2,61.5-4.7,98.4-7.3c73.7-5.3,163.2-11.4,265.9-17.9c25.7-1.6,52.2-3.2,79.4-4.9c27.3-1.6,55.3-3.3,84.1-5
		c14.4-0.9,29-1.4,43.7-1.5c14.8-0.1,29.7,0.4,44.8,0.7c15.1,0.4,30.4,0.6,45.9,0.5c15.5,0,31.1,0,46.9,0c505.5,0,1179.4,0,1853.4,0
		s1347.9,0,1853.4,0c15.8,0,31.4,0,46.9,0c7.7,0,15.4,0,23.1,0c7.6-0.1,15.2-0.2,22.8-0.4c15.1-0.4,30.1-0.8,44.8-0.7
		c7.4,0.1,14.7,0.3,22,0.6c7.3,0.3,14.5,0.8,21.7,1.2c57.6,3.4,112.2,6.7,163.6,10c102.7,6.5,192.2,12.5,265.9,17.7
		c18.4,1.3,35.9,2.5,52.3,3.7c16.4,1.2,31.8,2.3,46.1,3.4c14.3,1.1,27.6,2.1,39.7,3c12.1,0.9,23.2,1.8,33,2.6
		c39.5,3.1,60.6,4.9,60.6,4.9s-21.1,1.8-60.6,4.9c-9.9,0.8-20.9,1.6-33,2.6c-12.1,0.9-25.4,1.9-39.7,3c-14.3,1.1-29.7,2.2-46.1,3.4
		c-16.4,1.2-33.9,2.4-52.3,3.7c-73.7,5.3-163.2,11.3-265.9,17.7c-51.3,3.2-106,6.6-163.6,10c-7.2,0.4-14.4,0.9-21.7,1.2
		c-7.3,0.3-14.6,0.6-22,0.6c-14.8,0.2-29.7-0.3-44.8-0.7c-7.6-0.2-15.2-0.3-22.8-0.4c-7.6,0-15.3,0-23.1,0c-15.5,0-31.1,0-46.9,0
		c-505.5,0-1179.4,0-1853.4,0s-1347.9,0-1853.4,0c-15.8,0-31.4,0-46.9,0c-15.5,0-30.8,0.1-45.9,0.5c-15.1,0.4-30.1,0.8-44.8,0.7
		c-14.8,0-29.3-0.6-43.7-1.5c-28.8-1.7-56.8-3.4-84.1-5c-27.3-1.7-53.8-3.3-79.4-4.9c-102.7-6.5-192.2-12.6-265.9-17.9
		c-36.9-2.6-69.8-5.1-98.4-7.3c-14.3-1.1-27.6-2.1-39.7-3c-12.1-1-23.2-1.9-33-2.6C506.1,2439.5,485,2437.7,485,2437.7z"/>
</g>
<ellipse fill="#074567" cx="1164.3" cy="2437.7" rx="707.3" ry="39.5"/>
<ellipse fill="#074567" cx="5169.3" cy="2437.5" rx="707.3" ry="31.9"/>
<rect x="2914.6" y="2396.9" transform="matrix(0.9999 1.004851e-002 -1.004851e-002 0.9999 26.302 -32.8696)" fill="none" width="739.2" height="408.2"/>
<text transform="matrix(1 0 0 1 2916.5505 2471.1887)" fill="#FFFFFF" stroke="#000000" stroke-width="3" stroke-miterlimit="10" font-family="'AdobeGurmukhi-Bold'" font-size="120">280/280</text>
</svg>
